<svg xmlns="http://www.w3.org/2000/svg" xmlns:xlink="http://www.w3.org/1999/xlink" width="500" zoomAndPan="magnify" viewBox="0 0 375 374.999991" height="500" preserveAspectRatio="xMidYMid meet" version="1.0"><defs><g/><clipPath id="49b3d83218"><path d="M 128.078125 121.359375 L 254.386719 121.359375 L 254.386719 255.910156 L 128.078125 255.910156 Z M 128.078125 121.359375 " clip-rule="nonzero"/></clipPath><clipPath id="03361bfd92"><path d="M 230.824219 171.066406 L 270.179688 171.066406 L 270.179688 210.421875 L 230.824219 210.421875 Z M 230.824219 171.066406 " clip-rule="nonzero"/></clipPath></defs><g clip-path="url(#49b3d83218)"><path fill="#ffffff" d="M 254.367188 122.117188 L 253.578125 121.359375 L 191.234375 187.824219 L 128.886719 121.359375 L 128.097656 122.117188 L 190.480469 188.652344 L 128.097656 255.15625 L 128.886719 255.910156 L 191.234375 189.445312 L 253.578125 255.910156 L 254.367188 255.15625 L 191.984375 188.617188 Z M 254.367188 122.117188 " fill-opacity="1" fill-rule="nonzero"/></g><path fill="#ffffff" d="M 110.664062 198.921875 C 110.390625 197.757812 109.71875 196.695312 109.882812 195.445312 C 109.890625 195.363281 109.867188 195.273438 109.890625 195.195312 C 110.0625 194.65625 110.128906 194.03125 110.457031 193.613281 C 110.816406 193.152344 110.707031 192.734375 110.742188 192.269531 C 110.828125 190.984375 110.957031 189.695312 111.070312 188.410156 C 111.128906 187.769531 111.160156 187.125 111.25 186.488281 C 111.390625 185.480469 112.363281 184.53125 113.253906 184.460938 C 113.875 184.410156 114.351562 184.722656 114.765625 185.089844 C 115.910156 186.105469 117.246094 186.796875 118.652344 187.316406 C 119.882812 187.769531 121.167969 188.101562 122.449219 188.390625 C 123.734375 188.679688 125.058594 188.703125 126.375 188.585938 C 128.148438 188.425781 129.917969 188.257812 131.6875 188.074219 C 131.847656 188.046875 131.980469 187.96875 132.085938 187.839844 C 132.382812 187.472656 132.589844 187.191406 132.304688 186.585938 C 131.863281 185.648438 132.058594 184.597656 132.472656 183.621094 C 132.625 183.261719 132.714844 182.871094 132.828125 182.496094 C 133.03125 181.847656 133.636719 181.566406 134.246094 181.851562 C 134.71875 182.070312 135.234375 182.242188 135.636719 182.550781 C 137.023438 183.609375 138.65625 184.195312 140.214844 184.902344 C 142.851562 186.097656 145.5625 187.128906 148.398438 187.75 C 150.597656 188.234375 152.828125 188.570312 155.046875 188.980469 C 156.941406 189.328125 158.875 189.507812 160.683594 190.203125 C 161.515625 190.523438 162.371094 190.855469 163.089844 191.359375 C 163.867188 191.902344 164.652344 192.566406 164.46875 193.71875 C 164.433594 193.941406 164.363281 194.15625 164.328125 194.378906 C 164.230469 195.039062 164.039062 195.707031 164.070312 196.367188 C 164.109375 197.183594 163.652344 197.621094 163.105469 198.039062 C 162.785156 198.277344 162.425781 198.46875 162.0625 198.695312 C 162.667969 198.816406 163.253906 198.925781 163.839844 199.054688 C 164.152344 199.121094 164.460938 199.210938 164.761719 199.324219 C 164.882812 199.375 164.964844 199.523438 165.0625 199.628906 C 164.957031 199.726562 164.863281 199.882812 164.742188 199.914062 C 163.898438 200.121094 163.054688 200.378906 162.199219 200.480469 C 160.09375 200.722656 157.984375 200.9375 155.875 201.078125 C 153.574219 201.230469 151.269531 201.3125 148.964844 201.382812 C 146.574219 201.453125 144.183594 201.480469 141.789062 201.519531 C 139.921875 201.550781 138.050781 201.597656 136.183594 201.59375 C 133.761719 201.589844 131.339844 201.574219 128.921875 201.507812 C 125.824219 201.425781 122.726562 201.335938 119.632812 201.160156 C 117.027344 201.007812 114.421875 200.746094 111.824219 200.480469 C 111.03125 200.402344 110.25 200.175781 109.476562 199.980469 C 109.28125 199.929688 109.125 199.742188 108.949219 199.617188 C 109.121094 199.492188 109.273438 199.316406 109.464844 199.246094 C 109.847656 199.109375 110.246094 199.03125 110.664062 198.921875 Z M 132.519531 194.695312 L 132.539062 194.863281 C 133.015625 194.863281 133.496094 194.871094 133.976562 194.863281 C 137.058594 194.824219 140.144531 194.800781 143.226562 194.730469 C 144.910156 194.691406 146.589844 194.589844 148.265625 194.476562 C 149.558594 194.390625 150.855469 194.273438 152.140625 194.117188 C 153.382812 193.964844 154.621094 193.769531 155.851562 193.542969 C 157.304688 193.28125 158.734375 192.929688 160.082031 192.316406 C 160.53125 192.113281 160.941406 191.824219 161.4375 191.53125 C 161.148438 191.347656 160.984375 191.191406 160.789062 191.132812 C 159.699219 190.824219 158.613281 190.484375 157.507812 190.257812 C 156.023438 189.953125 154.515625 189.757812 153.023438 189.488281 C 151.542969 189.21875 150.066406 188.925781 148.59375 188.636719 C 146.523438 188.226562 144.535156 187.542969 142.574219 186.792969 C 141.59375 186.414062 140.617188 186.019531 139.664062 185.585938 C 138.160156 184.90625 136.675781 184.1875 135.144531 183.464844 C 134.972656 184.074219 134.777344 184.652344 134.664062 185.246094 C 134.621094 185.480469 134.703125 185.898438 134.859375 185.980469 C 136.199219 186.675781 137.585938 187.289062 138.933594 187.976562 C 139.796875 188.417969 140.753906 188.730469 141.324219 189.625 C 141.574219 190.015625 141.671875 190.671875 141.402344 191.027344 C 140.996094 191.570312 140.449219 191.929688 139.8125 192.136719 C 138.425781 192.59375 137.023438 192.996094 135.644531 193.472656 C 134.585938 193.839844 133.558594 194.285156 132.519531 194.695312 Z M 111.351562 195.175781 C 111.351562 195.449219 111.273438 195.734375 111.367188 195.945312 C 111.699219 196.707031 111.742188 197.480469 111.585938 198.277344 C 111.527344 198.566406 111.601562 198.792969 111.867188 198.914062 C 112.195312 199.074219 112.535156 199.207031 112.882812 199.3125 C 114.492188 199.742188 116.152344 199.785156 117.796875 199.804688 C 121.058594 199.84375 124.316406 199.804688 127.574219 199.820312 C 132.355469 199.839844 137.136719 199.699219 141.851562 200.046875 C 142.304688 199.375 142.691406 198.699219 143.179688 198.101562 C 143.664062 197.503906 144.261719 196.96875 144.785156 196.433594 C 144.738281 196.433594 144.628906 196.421875 144.515625 196.421875 C 142.179688 196.453125 139.84375 196.507812 137.507812 196.511719 C 134.847656 196.511719 132.1875 196.492188 129.527344 196.429688 C 125.878906 196.34375 122.230469 196.230469 118.585938 196.089844 C 116.160156 195.992188 113.742188 195.816406 111.351562 195.175781 Z M 138.75 190.734375 C 138.652344 190.679688 138.550781 190.628906 138.445312 190.585938 C 137.003906 190.125 135.574219 189.609375 134.109375 189.226562 C 133.257812 189 132.394531 188.902344 131.515625 188.9375 C 129.785156 189.019531 128.058594 189.234375 126.332031 189.40625 C 124.253906 189.613281 122.21875 189.339844 120.234375 188.757812 C 117.96875 188.09375 115.8125 187.175781 114.007812 185.59375 C 113.605469 185.246094 113.101562 185.195312 112.828125 185.503906 C 112.402344 185.988281 112.019531 186.519531 112.101562 187.21875 C 112.121094 187.371094 112.234375 187.539062 112.355469 187.640625 C 112.496094 187.765625 112.691406 187.832031 112.863281 187.914062 C 114.386719 188.65625 115.722656 189.644531 116.910156 190.847656 C 117.875 191.824219 118.722656 192.882812 119.367188 194.109375 C 119.453125 194.273438 119.675781 194.457031 119.847656 194.46875 C 121.132812 194.550781 122.414062 194.601562 123.699219 194.644531 C 125.269531 194.699219 126.839844 194.742188 128.40625 194.769531 C 128.722656 194.777344 129.082031 194.769531 129.34375 194.632812 C 130.175781 194.179688 130.96875 193.664062 131.804688 193.160156 C 131.597656 192.679688 131.363281 192.144531 131.121094 191.589844 C 131.484375 191.464844 131.789062 191.359375 132.089844 191.25 C 133.230469 190.835938 134.367188 190.417969 135.507812 190.011719 C 135.554688 189.996094 135.679688 190.089844 135.710938 190.15625 C 135.882812 190.597656 136.042969 191.042969 136.214844 191.515625 Z M 142.175781 200.160156 C 142.664062 200.160156 143.089844 200.171875 143.515625 200.160156 C 146.410156 200.078125 149.3125 200.050781 152.199219 199.882812 C 153.910156 199.78125 155.617188 199.5 157.308594 199.21875 C 159.089844 198.925781 160.835938 198.480469 162.378906 197.496094 C 162.671875 197.308594 163.054688 197.117188 163.027344 196.675781 C 162.96875 195.808594 163.1875 194.988281 163.441406 194.171875 C 163.605469 193.652344 163.683594 193.125 163.246094 192.640625 C 162.945312 192.828125 162.664062 193.074219 162.339844 193.203125 C 161.207031 193.648438 160.085938 194.152344 158.914062 194.460938 C 157.160156 194.917969 155.382812 195.316406 153.59375 195.5625 C 151.371094 195.867188 149.125 195.96875 146.890625 196.191406 C 146.074219 196.269531 145.226562 196.328125 144.574219 196.941406 C 144.328125 197.171875 144.082031 197.40625 143.835938 197.632812 C 143.074219 198.339844 142.519531 199.179688 142.175781 200.160156 Z M 112.246094 188.207031 C 112.003906 188.269531 111.96875 188.269531 111.933594 188.734375 C 111.828125 190.050781 111.667969 191.367188 111.699219 192.679688 C 111.734375 193.964844 111.507812 193.75 112.824219 193.957031 C 114.171875 194.171875 115.539062 194.28125 116.902344 194.378906 C 117.691406 194.4375 118.488281 194.390625 119.328125 194.390625 C 117.652344 191.386719 115.25 189.171875 112.121094 187.753906 L 111.992188 187.871094 Z M 131.527344 194.878906 C 131.800781 194.816406 131.980469 194.796875 132.144531 194.734375 C 133.867188 194.066406 135.582031 193.375 137.3125 192.722656 C 138.355469 192.324219 139.445312 192.027344 140.46875 191.589844 C 141.515625 191.144531 141.59375 189.757812 140.636719 189.125 C 140.082031 188.769531 139.507812 188.449219 138.914062 188.164062 C 137.53125 187.484375 136.136719 186.835938 134.753906 186.160156 C 134.625 186.097656 134.488281 185.910156 134.480469 185.773438 C 134.425781 185.035156 134.566406 184.332031 134.894531 183.664062 C 134.972656 183.511719 135.015625 183.34375 135.101562 183.113281 L 134.632812 183.152344 C 134.597656 182.90625 134.332031 182.730469 133.707031 182.636719 C 133.488281 183.4375 133.222656 184.226562 133.054688 185.039062 C 132.929688 185.644531 132.941406 186.289062 133.441406 186.761719 C 133.714844 187.015625 134.023438 187.226562 134.359375 187.390625 C 135.34375 187.890625 136.351562 188.347656 137.34375 188.84375 C 138.214844 189.28125 139.066406 189.75 139.929688 190.203125 L 139.9375 190.394531 C 139.605469 190.566406 139.292969 190.808594 138.9375 190.902344 C 136.078125 191.683594 133.296875 192.664062 130.660156 194.023438 C 130.265625 194.226562 129.90625 194.492188 129.53125 194.726562 L 129.589844 194.84375 C 130.273438 194.738281 130.984375 194.988281 131.703125 194.652344 Z M 162.472656 191.9375 C 162.324219 191.835938 162.214844 191.773438 162.117188 191.699219 C 161.851562 191.488281 161.617188 191.449219 161.363281 191.742188 C 161.195312 191.917969 161.003906 192.0625 160.789062 192.171875 C 159.644531 192.789062 158.414062 193.167969 157.152344 193.460938 C 154.332031 194.113281 151.460938 194.414062 148.582031 194.640625 C 146.429688 194.808594 144.265625 194.925781 142.105469 194.976562 C 139.351562 195.042969 136.589844 195.035156 133.828125 195.027344 C 131.933594 195.027344 130.035156 194.988281 128.140625 194.945312 C 126.234375 194.902344 124.324219 194.863281 122.417969 194.773438 C 119.539062 194.640625 116.660156 194.488281 113.785156 194.296875 C 113.078125 194.25 112.363281 194.066406 111.695312 193.839844 C 111.378906 193.730469 111.351562 193.851562 111.234375 194.027344 C 111.285156 194.070312 111.3125 194.109375 111.347656 194.121094 C 112.730469 194.59375 114.171875 194.773438 115.617188 194.894531 C 116.828125 194.996094 118.046875 195.027344 119.261719 195.074219 C 122.296875 195.191406 125.332031 195.320312 128.371094 195.40625 C 130.507812 195.464844 132.648438 195.480469 134.785156 195.496094 C 136.839844 195.507812 138.894531 195.539062 140.949219 195.484375 C 143.207031 195.421875 145.464844 195.289062 147.722656 195.15625 C 149.117188 195.070312 150.511719 194.972656 151.898438 194.796875 C 153.449219 194.597656 154.992188 194.351562 156.523438 194.046875 C 158.585938 193.628906 160.613281 193.074219 162.46875 191.9375 Z M 111.171875 194.691406 C 111.5 195.0625 111.886719 195.167969 112.257812 195.21875 C 113.835938 195.441406 115.410156 195.714844 116.996094 195.816406 C 119.972656 196.007812 122.957031 196.117188 125.9375 196.210938 C 128.128906 196.28125 130.324219 196.296875 132.519531 196.300781 C 135.695312 196.304688 138.867188 196.277344 142.039062 196.261719 C 142.863281 196.261719 143.683594 196.269531 144.507812 196.253906 C 144.917969 196.25 145.324219 196.21875 145.730469 196.175781 C 146.429688 196.101562 147.125 195.992188 147.828125 195.925781 C 149.765625 195.746094 151.722656 195.679688 153.640625 195.375 C 155.714844 195.042969 157.773438 194.554688 159.804688 194.011719 C 160.804688 193.746094 161.738281 193.210938 162.691406 192.777344 C 162.8125 192.71875 162.886719 192.558594 162.984375 192.449219 L 162.890625 192.378906 C 162.226562 192.707031 161.582031 193.082031 160.894531 193.355469 C 158.824219 194.179688 156.65625 194.671875 154.457031 194.972656 C 152.308594 195.273438 150.144531 195.503906 147.980469 195.660156 C 145.527344 195.835938 143.066406 195.980469 140.609375 195.988281 C 136.046875 196.011719 131.488281 195.933594 126.929688 195.875 C 125.09375 195.851562 123.253906 195.773438 121.417969 195.710938 C 120.003906 195.660156 118.585938 195.628906 117.175781 195.53125 C 115.910156 195.445312 114.648438 195.3125 113.386719 195.148438 C 112.671875 195.058594 111.96875 194.859375 111.171875 194.691406 Z M 139.683594 190.21875 L 133.605469 187.230469 L 132.613281 188.703125 C 133.171875 188.820312 133.691406 188.886719 134.179688 189.039062 C 135.707031 189.511719 137.222656 190.007812 138.742188 190.515625 C 139.074219 190.625 139.335938 190.628906 139.683594 190.21875 Z M 136.078125 191.527344 C 135.90625 191.175781 135.75 190.824219 135.558594 190.488281 C 135.515625 190.414062 135.339844 190.355469 135.246094 190.382812 C 134.828125 190.496094 134.421875 190.640625 134.011719 190.777344 C 133.140625 191.074219 132.269531 191.371094 131.34375 191.6875 C 131.578125 192.1875 131.800781 192.65625 132.015625 193.109375 Z M 111.332031 197.640625 L 111.519531 197.589844 C 111.363281 196.824219 111.207031 196.054688 111.039062 195.292969 C 111.035156 195.265625 110.921875 195.265625 110.820312 195.242188 C 110.828125 196.105469 110.707031 196.964844 111.332031 197.640625 Z M 111.332031 197.640625 " fill-opacity="1" fill-rule="nonzero"/><path fill="#ffffff" d="M 133.113281 192.234375 C 133.085938 192.054688 133.070312 191.925781 133.050781 191.796875 L 132.984375 191.804688 C 132.992188 191.890625 133.019531 191.980469 133.003906 192.0625 C 132.972656 192.160156 132.929688 192.253906 132.878906 192.339844 C 132.789062 192.292969 132.6875 192.261719 132.617188 192.195312 C 132.46875 192.054688 132.332031 191.898438 132.191406 191.746094 L 132.269531 191.628906 L 132.738281 191.898438 C 132.675781 191.542969 132.914062 191.425781 133.238281 191.34375 C 133.65625 191.234375 134.0625 191.078125 134.507812 190.929688 C 134.519531 191.09375 134.527344 191.238281 134.539062 191.429688 L 134.777344 191.5 L 134.8125 191.65625 Z M 133.113281 192.234375 " fill-opacity="1" fill-rule="nonzero"/><path fill="#ffffff" d="M 134.824219 191.191406 L 135.359375 191.113281 C 135.367188 191.222656 135.375 191.335938 135.386719 191.445312 L 134.835938 191.40625 C 134.832031 191.335938 134.828125 191.261719 134.824219 191.191406 Z M 134.824219 191.191406 " fill-opacity="1" fill-rule="nonzero"/><g fill="#ffffff" fill-opacity="1"><g transform="translate(93.51439, 119.180318)"><g><path d="M 2.984375 -3.375 C 2.546875 -2.820312 2.09375 -2.351562 1.625 -1.96875 C 1.15625 -1.582031 0.738281 -1.285156 0.375 -1.078125 C 0.0078125 -0.867188 -0.171875 -0.769531 -0.171875 -0.78125 L -0.609375 -0.828125 C -0.753906 -0.984375 -1.078125 -1.332031 -1.578125 -1.875 C -2.085938 -2.414062 -2.554688 -2.867188 -2.984375 -3.234375 L -1.53125 -5.34375 C -0.96875 -4.894531 -0.460938 -4.6875 -0.015625 -4.71875 C 0.421875 -4.75 0.820312 -5 1.1875 -5.46875 C 1.445312 -5.789062 1.59375 -6.085938 1.625 -6.359375 C 1.65625 -6.640625 1.566406 -6.863281 1.359375 -7.03125 C 1.109375 -7.226562 0.789062 -7.265625 0.40625 -7.140625 C 0.0195312 -7.015625 -0.507812 -6.765625 -1.1875 -6.390625 L -1.984375 -5.96875 C -2.890625 -5.488281 -3.742188 -5.203125 -4.546875 -5.109375 C -5.347656 -5.023438 -6.117188 -5.273438 -6.859375 -5.859375 C -7.535156 -6.390625 -7.96875 -7.0625 -8.15625 -7.875 C -8.351562 -8.695312 -8.304688 -9.585938 -8.015625 -10.546875 C -7.722656 -11.503906 -7.1875 -12.472656 -6.40625 -13.453125 C -6 -13.972656 -5.582031 -14.429688 -5.15625 -14.828125 C -4.738281 -15.234375 -4.382812 -15.539062 -4.09375 -15.75 C -3.8125 -15.96875 -3.632812 -16.097656 -3.5625 -16.140625 L -3.078125 -16.0625 C -2.941406 -15.914062 -2.632812 -15.570312 -2.15625 -15.03125 C -1.6875 -14.5 -1.175781 -13.96875 -0.625 -13.4375 L -1.953125 -11.515625 L -2.234375 -11.40625 L -2.5 -11.609375 C -3.238281 -12.191406 -3.914062 -12.09375 -4.53125 -11.3125 C -4.757812 -11.019531 -4.878906 -10.726562 -4.890625 -10.4375 C -4.898438 -10.15625 -4.800781 -9.929688 -4.59375 -9.765625 C -4.332031 -9.554688 -4.015625 -9.515625 -3.640625 -9.640625 C -3.273438 -9.765625 -2.734375 -10.03125 -2.015625 -10.4375 L -1.59375 -10.65625 C -0.945312 -11.019531 -0.351562 -11.296875 0.1875 -11.484375 C 0.726562 -11.671875 1.285156 -11.742188 1.859375 -11.703125 C 2.441406 -11.660156 3.007812 -11.421875 3.5625 -10.984375 C 4.257812 -10.441406 4.695312 -9.769531 4.875 -8.96875 C 5.0625 -8.164062 4.992188 -7.285156 4.671875 -6.328125 C 4.347656 -5.378906 3.785156 -4.394531 2.984375 -3.375 Z M 2.984375 -3.375 "/></g></g></g><g fill="#ffffff" fill-opacity="1"><g transform="translate(106.327334, 104.159892)"><g><path d="M -0.765625 -1.515625 C -0.453125 -1.960938 -0.3125 -2.320312 -0.34375 -2.59375 C -0.375 -2.863281 -0.578125 -3.203125 -0.953125 -3.609375 L -5.765625 -8.71875 C -6.046875 -9.019531 -6.265625 -9.1875 -6.421875 -9.21875 C -6.585938 -9.257812 -6.773438 -9.179688 -6.984375 -8.984375 L -7.359375 -8.609375 L -7.671875 -8.6875 L -8.59375 -9.90625 L -6.21875 -12.140625 C -5.976562 -12.367188 -5.160156 -13.191406 -3.765625 -14.609375 L -2.59375 -13.1875 C -2.894531 -12.8125 -3.050781 -12.53125 -3.0625 -12.34375 C -3.082031 -12.15625 -2.96875 -11.910156 -2.71875 -11.609375 C -1.21875 -9.828125 0.367188 -8.046875 2.046875 -6.265625 C 2.429688 -5.859375 2.71875 -5.613281 2.90625 -5.53125 C 3.101562 -5.457031 3.289062 -5.507812 3.46875 -5.6875 C 3.664062 -5.863281 3.8125 -6.023438 3.90625 -6.171875 L 4.15625 -6.140625 L 5.171875 -4.765625 C 4.066406 -3.796875 3.234375 -3.046875 2.671875 -2.515625 C 2.140625 -2.015625 1.34375 -1.222656 0.28125 -0.140625 Z M -0.765625 -1.515625 "/></g></g></g><g fill="#ffffff" fill-opacity="1"><g transform="translate(118.288049, 93.491507)"><g><path d="M -4.296875 -9.53125 C -4.535156 -9.875 -4.726562 -10.078125 -4.875 -10.140625 C -5.019531 -10.203125 -5.210938 -10.15625 -5.453125 -10 L -5.890625 -9.6875 L -6.203125 -9.8125 L -6.90625 -11.1875 L -4.203125 -12.984375 C -3.703125 -13.328125 -3.160156 -13.707031 -2.578125 -14.125 C -2.003906 -14.539062 -1.601562 -14.84375 -1.375 -15.03125 L -0.453125 -13.4375 C -0.804688 -13.050781 -1.003906 -12.757812 -1.046875 -12.5625 C -1.097656 -12.363281 -1.03125 -12.109375 -0.84375 -11.796875 L 3.015625 -5.84375 C 3.316406 -5.375 3.554688 -5.085938 3.734375 -4.984375 C 3.910156 -4.890625 4.109375 -4.914062 4.328125 -5.0625 C 4.484375 -5.164062 4.601562 -5.25 4.6875 -5.3125 C 4.78125 -5.382812 4.828125 -5.441406 4.828125 -5.484375 L 5.09375 -5.390625 L 5.890625 -3.890625 C 5.648438 -3.742188 5.238281 -3.484375 4.65625 -3.109375 C 4.070312 -2.742188 3.535156 -2.394531 3.046875 -2.0625 C 2.597656 -1.757812 2.078125 -1.390625 1.484375 -0.953125 C 0.890625 -0.523438 0.492188 -0.238281 0.296875 -0.09375 L -0.515625 -1.609375 C -0.128906 -1.992188 0.0664062 -2.320312 0.078125 -2.59375 C 0.0976562 -2.875 -0.0507812 -3.25 -0.375 -3.71875 Z M 1.4375 -12.734375 C 1.476562 -12.921875 1.484375 -13.101562 1.453125 -13.28125 C 1.421875 -13.457031 1.363281 -13.609375 1.28125 -13.734375 C 1.15625 -13.921875 1.015625 -14.019531 0.859375 -14.03125 C 0.710938 -14.039062 0.5 -13.96875 0.21875 -13.8125 L 0 -13.90625 L -0.765625 -15.375 C -0.578125 -15.5 -0.242188 -15.710938 0.234375 -16.015625 C 0.722656 -16.328125 1.203125 -16.640625 1.671875 -16.953125 C 2.097656 -17.242188 2.550781 -17.566406 3.03125 -17.921875 C 3.507812 -18.273438 3.835938 -18.53125 4.015625 -18.6875 L 4.34375 -18.515625 L 5.046875 -17.171875 C 4.796875 -16.648438 4.601562 -16.0625 4.46875 -15.40625 C 4.34375 -14.75 4.273438 -13.957031 4.265625 -13.03125 L 4.203125 -11.5625 L 7.859375 -9.578125 C 8.441406 -9.265625 8.9375 -9.070312 9.34375 -9 C 9.757812 -8.925781 10.15625 -8.984375 10.53125 -9.171875 L 10.859375 -9.03125 L 11.515625 -7.671875 C 11.304688 -7.503906 10.890625 -7.171875 10.265625 -6.671875 C 9.648438 -6.179688 9.253906 -5.875 9.078125 -5.75 C 8.648438 -5.457031 8.234375 -5.316406 7.828125 -5.328125 C 7.421875 -5.347656 6.914062 -5.523438 6.3125 -5.859375 L 1.34375 -8.640625 L 1.078125 -9.21875 Z M 1.4375 -12.734375 "/></g></g></g><g fill="#ffffff" fill-opacity="1"><g transform="translate(137.281466, 81.597878)"><g><path d="M 6.15625 -2.75 L 5.609375 -4.359375 C 6.003906 -4.585938 6.265625 -4.75 6.390625 -4.84375 C 6.515625 -4.945312 6.585938 -5.039062 6.609375 -5.125 C 6.628906 -5.207031 6.597656 -5.335938 6.515625 -5.515625 L 6.328125 -5.8125 L 5.90625 -6.5 L 4.453125 -5.90625 C 4.265625 -5.832031 3.785156 -5.585938 3.015625 -5.171875 L 3.171875 -4.28125 C 3.234375 -4.0625 3.28125 -3.910156 3.3125 -3.828125 C 3.375 -3.679688 3.445312 -3.597656 3.53125 -3.578125 C 3.625 -3.554688 3.789062 -3.597656 4.03125 -3.703125 L 4.53125 -3.921875 L 4.75 -3.8125 L 5.28125 -2.203125 C 5.082031 -2.128906 4.703125 -1.976562 4.140625 -1.75 C 3.585938 -1.53125 3 -1.285156 2.375 -1.015625 L -0.078125 0.078125 L -0.640625 -1.59375 C -0.253906 -1.90625 -0.09375 -2.390625 -0.15625 -3.046875 L -1.25 -13.65625 L 3.515625 -16.0625 L 3.890625 -15.984375 C 4.410156 -15.273438 5.441406 -13.921875 6.984375 -11.921875 C 8.535156 -9.929688 9.609375 -8.5625 10.203125 -7.8125 C 10.492188 -7.4375 10.765625 -7.1875 11.015625 -7.0625 C 11.265625 -6.945312 11.535156 -6.941406 11.828125 -7.046875 L 12.046875 -6.921875 L 12.546875 -5.375 C 12.367188 -5.300781 12.019531 -5.160156 11.5 -4.953125 C 10.976562 -4.742188 10.441406 -4.519531 9.890625 -4.28125 C 9.148438 -3.957031 8.425781 -3.628906 7.71875 -3.296875 C 7.019531 -2.960938 6.570312 -2.742188 6.375 -2.640625 Z M 3.546875 -8.1875 C 3.742188 -8.269531 4.054688 -8.421875 4.484375 -8.640625 L 2.453125 -11.625 L 2.03125 -11.453125 L 2.59375 -7.78125 Z M 3.546875 -8.1875 "/></g></g></g><g fill="#ffffff" fill-opacity="1"><g transform="translate(157.869441, 73.538597)"><g><path d="M 1.546875 -2.09375 C 2.085938 -2.28125 2.476562 -2.453125 2.71875 -2.609375 C 2.96875 -2.765625 3.117188 -2.96875 3.171875 -3.21875 C 3.222656 -3.46875 3.203125 -3.804688 3.109375 -4.234375 L 1.421875 -11.28125 C 1.046875 -11.195312 0.785156 -11.066406 0.640625 -10.890625 C 0.492188 -10.722656 0.421875 -10.445312 0.421875 -10.0625 C 0.421875 -9.675781 0.488281 -9.078125 0.625 -8.265625 L -1.796875 -7.53125 C -2.078125 -9.082031 -2.429688 -10.8125 -2.859375 -12.71875 L -2.671875 -13.0625 L -0.265625 -13.40625 L 5.921875 -14.875 L 8.265625 -15.671875 L 8.578125 -15.4375 C 9.128906 -13.226562 9.554688 -11.570312 9.859375 -10.46875 L 7.453125 -9.734375 C 7.179688 -10.617188 6.957031 -11.238281 6.78125 -11.59375 C 6.613281 -11.957031 6.4375 -12.175781 6.25 -12.25 C 6.0625 -12.320312 5.785156 -12.316406 5.421875 -12.234375 C 5.921875 -9.828125 6.457031 -7.414062 7.03125 -5 C 7.144531 -4.5 7.300781 -4.164062 7.5 -4 C 7.707031 -3.832031 8.003906 -3.796875 8.390625 -3.890625 C 8.628906 -3.941406 8.957031 -4.039062 9.375 -4.1875 L 9.5 -4.09375 L 9.78125 -2.1875 C 8.019531 -1.863281 6.671875 -1.585938 5.734375 -1.359375 C 4.867188 -1.160156 3.566406 -0.785156 1.828125 -0.234375 Z M 1.546875 -2.09375 "/></g></g></g><g fill="#ffffff" fill-opacity="1"><g transform="translate(178.1704, 69.621269)"><g/></g></g><g fill="#ffffff" fill-opacity="1"><g transform="translate(189.765294, 68.766391)"><g><path d="M 4.484375 0.390625 C 3.773438 0.367188 3.125 0.28125 2.53125 0.125 C 1.945312 -0.0195312 1.460938 -0.175781 1.078125 -0.34375 C 0.703125 -0.507812 0.515625 -0.597656 0.515625 -0.609375 L 0.296875 -0.984375 C 0.347656 -1.191406 0.4375 -1.660156 0.5625 -2.390625 C 0.695312 -3.117188 0.785156 -3.765625 0.828125 -4.328125 L 3.390625 -4.40625 C 3.367188 -3.6875 3.5 -3.160156 3.78125 -2.828125 C 4.070312 -2.492188 4.515625 -2.316406 5.109375 -2.296875 C 5.523438 -2.285156 5.851562 -2.347656 6.09375 -2.484375 C 6.332031 -2.617188 6.457031 -2.816406 6.46875 -3.078125 C 6.476562 -3.398438 6.316406 -3.675781 5.984375 -3.90625 C 5.648438 -4.144531 5.132812 -4.425781 4.4375 -4.75 L 3.640625 -5.140625 C 2.703125 -5.585938 1.957031 -6.101562 1.40625 -6.6875 C 0.863281 -7.28125 0.609375 -8.050781 0.640625 -9 C 0.671875 -9.863281 0.957031 -10.613281 1.5 -11.25 C 2.039062 -11.894531 2.785156 -12.382812 3.734375 -12.71875 C 4.679688 -13.050781 5.78125 -13.195312 7.03125 -13.15625 C 7.6875 -13.132812 8.300781 -13.070312 8.875 -12.96875 C 9.445312 -12.863281 9.90625 -12.757812 10.25 -12.65625 C 10.59375 -12.550781 10.804688 -12.484375 10.890625 -12.453125 L 11.109375 -12.015625 C 11.054688 -11.828125 10.957031 -11.378906 10.8125 -10.671875 C 10.664062 -9.972656 10.546875 -9.25 10.453125 -8.5 L 8.09375 -8.40625 L 7.859375 -8.578125 L 7.859375 -8.90625 C 7.890625 -9.851562 7.410156 -10.34375 6.421875 -10.375 C 6.046875 -10.382812 5.738281 -10.304688 5.5 -10.140625 C 5.257812 -9.972656 5.132812 -9.753906 5.125 -9.484375 C 5.113281 -9.148438 5.269531 -8.875 5.59375 -8.65625 C 5.914062 -8.4375 6.453125 -8.15625 7.203125 -7.8125 L 7.625 -7.609375 C 8.300781 -7.304688 8.878906 -6.992188 9.359375 -6.671875 C 9.835938 -6.347656 10.226562 -5.9375 10.53125 -5.4375 C 10.84375 -4.945312 10.988281 -4.351562 10.96875 -3.65625 C 10.9375 -2.769531 10.65625 -2.015625 10.125 -1.390625 C 9.59375 -0.773438 8.84375 -0.3125 7.875 0 C 6.90625 0.300781 5.773438 0.429688 4.484375 0.390625 Z M 4.484375 0.390625 "/></g></g></g><g fill="#ffffff" fill-opacity="1"><g transform="translate(209.362139, 70.046976)"><g><path d="M 12.546875 -1.921875 C 12.085938 -0.804688 11.625 0.515625 11.15625 2.046875 L 10.796875 2.328125 C 8.585938 1.785156 6.472656 1.304688 4.453125 0.890625 C 3.148438 0.628906 1.738281 0.414062 0.21875 0.25 L 0.765625 -1.53125 C 1.285156 -1.519531 1.660156 -1.617188 1.890625 -1.828125 C 2.117188 -2.035156 2.289062 -2.4375 2.40625 -3.03125 L 3.765625 -9.671875 C 3.859375 -10.109375 3.882812 -10.40625 3.84375 -10.5625 C 3.800781 -10.71875 3.664062 -10.816406 3.4375 -10.859375 C 3.257812 -10.898438 3.085938 -10.921875 2.921875 -10.921875 L 2.734375 -11.25 L 3.234375 -12.78125 C 3.492188 -12.726562 3.695312 -12.679688 3.84375 -12.640625 C 5.457031 -12.285156 6.796875 -12 7.859375 -11.78125 C 9.109375 -11.53125 10.304688 -11.3125 11.453125 -11.125 C 12.597656 -10.945312 13.457031 -10.835938 14.03125 -10.796875 L 14.234375 -10.4375 C 14.015625 -9.914062 13.785156 -9.285156 13.546875 -8.546875 C 13.316406 -7.804688 13.132812 -7.144531 13 -6.5625 L 10.203125 -6.9375 L 10.390625 -7.65625 C 10.453125 -7.957031 10.445312 -8.195312 10.375 -8.375 C 10.3125 -8.550781 10.148438 -8.695312 9.890625 -8.8125 C 9.628906 -8.9375 9.222656 -9.054688 8.671875 -9.171875 C 8.390625 -9.222656 8.195312 -9.222656 8.09375 -9.171875 C 7.988281 -9.117188 7.914062 -8.972656 7.875 -8.734375 L 7.3125 -6.53125 L 8.9375 -6.1875 C 9.457031 -6.082031 10.191406 -5.972656 11.140625 -5.859375 L 11.328125 -5.515625 L 10.59375 -3.296875 C 9.320312 -3.597656 8.53125 -3.78125 8.21875 -3.84375 C 7.9375 -3.894531 7.4375 -3.953125 6.71875 -4.015625 L 6.34375 -2.34375 C 6.269531 -1.976562 6.238281 -1.710938 6.25 -1.546875 C 6.269531 -1.378906 6.332031 -1.253906 6.4375 -1.171875 C 6.550781 -1.085938 6.757812 -1.015625 7.0625 -0.953125 C 7.644531 -0.828125 8.09375 -0.789062 8.40625 -0.84375 C 8.726562 -0.894531 8.988281 -1.050781 9.1875 -1.3125 C 9.382812 -1.570312 9.585938 -2 9.796875 -2.59375 L 12.359375 -2.265625 Z M 12.546875 -1.921875 "/></g></g></g><g fill="#ffffff" fill-opacity="1"><g transform="translate(229.463813, 74.831835)"><g><path d="M 1.046875 -1.40625 C 1.546875 -1.289062 1.925781 -1.316406 2.1875 -1.484375 C 2.445312 -1.648438 2.679688 -2 2.890625 -2.53125 L 5.359375 -8.90625 C 5.515625 -9.289062 5.585938 -9.566406 5.578125 -9.734375 C 5.566406 -9.910156 5.46875 -10.035156 5.28125 -10.109375 C 5.132812 -10.160156 4.988281 -10.203125 4.84375 -10.234375 C 4.707031 -10.273438 4.625 -10.300781 4.59375 -10.3125 L 4.5 -10.625 L 5.265625 -12.015625 L 7.953125 -10.96875 C 8.316406 -10.832031 8.910156 -10.625 9.734375 -10.34375 C 10.554688 -10.0625 11.113281 -9.875 11.40625 -9.78125 C 13.394531 -9 14.585938 -8.070312 14.984375 -7 C 15.390625 -5.9375 15.390625 -4.882812 14.984375 -3.84375 C 14.679688 -3.0625 14.175781 -2.410156 13.46875 -1.890625 C 12.769531 -1.367188 11.984375 -1.046875 11.109375 -0.921875 C 10.234375 -0.796875 9.375 -0.894531 8.53125 -1.21875 L 6.921875 -1.84375 L 6.5625 -0.9375 C 6.351562 -0.40625 6.273438 -0.0195312 6.328125 0.21875 C 6.378906 0.457031 6.59375 0.648438 6.96875 0.796875 C 7.113281 0.859375 7.242188 0.898438 7.359375 0.921875 C 7.484375 0.953125 7.566406 0.976562 7.609375 1 L 7.640625 1.1875 L 6.828125 2.75 C 6.585938 2.632812 6.15625 2.441406 5.53125 2.171875 C 4.90625 1.910156 4.316406 1.675781 3.765625 1.46875 C 3.410156 1.320312 2.800781 1.109375 1.9375 0.828125 C 1.070312 0.546875 0.492188 0.363281 0.203125 0.28125 Z M 9.09375 -3.453125 C 9.519531 -3.453125 9.890625 -3.585938 10.203125 -3.859375 C 10.515625 -4.128906 10.785156 -4.566406 11.015625 -5.171875 C 11.253906 -5.785156 11.269531 -6.289062 11.0625 -6.6875 C 10.863281 -7.09375 10.4375 -7.421875 9.78125 -7.671875 C 9.644531 -7.722656 9.546875 -7.726562 9.484375 -7.6875 C 9.429688 -7.65625 9.367188 -7.550781 9.296875 -7.375 C 8.785156 -6.28125 8.300781 -5.203125 7.84375 -4.140625 Z M 9.09375 -3.453125 "/></g></g></g><g fill="#ffffff" fill-opacity="1"><g transform="translate(248.494252, 82.960289)"><g><path d="M 5.796875 3.46875 L 6.796875 2.078125 C 7.203125 2.265625 7.484375 2.382812 7.640625 2.4375 C 7.796875 2.488281 7.910156 2.492188 7.984375 2.453125 C 8.054688 2.421875 8.144531 2.328125 8.25 2.171875 L 8.40625 1.828125 L 8.703125 1.09375 L 7.390625 0.25 C 7.210938 0.144531 6.738281 -0.109375 5.96875 -0.515625 L 5.34375 0.140625 C 5.1875 0.304688 5.082031 0.425781 5.03125 0.5 C 4.945312 0.632812 4.921875 0.742188 4.953125 0.828125 C 4.992188 0.910156 5.128906 1.023438 5.359375 1.171875 L 5.8125 1.453125 L 5.84375 1.703125 L 4.828125 3.046875 C 4.660156 2.921875 4.320312 2.695312 3.8125 2.375 C 3.3125 2.050781 2.773438 1.71875 2.203125 1.375 L -0.109375 0 L 0.9375 -1.4375 C 1.414062 -1.289062 1.90625 -1.429688 2.40625 -1.859375 L 10.453125 -8.875 L 15.171875 -6.359375 L 15.3125 -6 C 15.039062 -5.175781 14.53125 -3.554688 13.78125 -1.140625 C 13.039062 1.265625 12.53125 2.929688 12.25 3.859375 C 12.101562 4.316406 12.050781 4.679688 12.09375 4.953125 C 12.144531 5.222656 12.300781 5.441406 12.5625 5.609375 L 12.59375 5.875 L 11.609375 7.15625 C 11.453125 7.0625 11.132812 6.863281 10.65625 6.5625 C 10.1875 6.257812 9.695312 5.953125 9.1875 5.640625 C 8.5 5.210938 7.816406 4.804688 7.140625 4.421875 C 6.460938 4.035156 6.023438 3.796875 5.828125 3.703125 Z M 8.71875 -1.8125 C 8.90625 -1.695312 9.21875 -1.523438 9.65625 -1.296875 L 10.921875 -4.6875 L 10.53125 -4.921875 L 7.84375 -2.359375 Z M 8.71875 -1.8125 "/></g></g></g><g fill="#ffffff" fill-opacity="1"><g transform="translate(266.923514, 95.174752)"><g><path d="M 2.609375 0.046875 C 3.066406 0.390625 3.429688 0.613281 3.703125 0.71875 C 3.984375 0.832031 4.238281 0.835938 4.46875 0.734375 C 4.707031 0.640625 4.972656 0.429688 5.265625 0.109375 L 10.0625 -5.328125 C 9.769531 -5.585938 9.507812 -5.722656 9.28125 -5.734375 C 9.0625 -5.753906 8.789062 -5.648438 8.46875 -5.421875 C 8.15625 -5.203125 7.707031 -4.8125 7.125 -4.25 L 5.125 -5.796875 C 6.238281 -6.921875 7.453125 -8.207031 8.765625 -9.65625 L 9.15625 -9.703125 L 10.8125 -7.921875 L 15.578125 -3.703125 L 17.5625 -2.25 L 17.578125 -1.859375 C 16.078125 -0.140625 14.960938 1.160156 14.234375 2.046875 L 12.234375 0.5 C 12.816406 -0.238281 13.203125 -0.773438 13.390625 -1.109375 C 13.585938 -1.453125 13.660156 -1.722656 13.609375 -1.921875 C 13.566406 -2.128906 13.410156 -2.359375 13.140625 -2.609375 C 11.453125 -0.816406 9.785156 1.003906 8.140625 2.859375 C 7.796875 3.253906 7.613281 3.582031 7.59375 3.84375 C 7.570312 4.101562 7.707031 4.367188 8 4.640625 C 8.175781 4.796875 8.453125 5.003906 8.828125 5.265625 L 8.8125 5.421875 L 7.421875 6.734375 C 6.140625 5.492188 5.132812 4.550781 4.40625 3.90625 C 3.75 3.320312 2.695312 2.472656 1.25 1.359375 Z M 2.609375 0.046875 "/></g></g></g><g fill="#ffffff" fill-opacity="1"><g transform="translate(281.764547, 109.255116)"><g><path d="M 3.65625 5 C 2.570312 3.644531 2.050781 2.441406 2.09375 1.390625 C 2.132812 0.335938 2.738281 -0.648438 3.90625 -1.578125 L 8.75 -5.4375 C 9.101562 -5.71875 9.3125 -5.929688 9.375 -6.078125 C 9.4375 -6.234375 9.394531 -6.398438 9.25 -6.578125 C 9.175781 -6.660156 9.09375 -6.742188 9 -6.828125 C 8.914062 -6.910156 8.863281 -6.96875 8.84375 -7 L 8.890625 -7.09375 L 10.421875 -8.0625 C 10.554688 -7.875 10.828125 -7.515625 11.234375 -6.984375 C 11.640625 -6.453125 12.101562 -5.859375 12.625 -5.203125 C 12.925781 -4.816406 13.257812 -4.414062 13.625 -4 C 13.988281 -3.582031 14.234375 -3.296875 14.359375 -3.140625 L 12.765625 -2.125 C 12.535156 -2.382812 12.3125 -2.519531 12.09375 -2.53125 C 11.875 -2.550781 11.640625 -2.460938 11.390625 -2.265625 L 6.734375 1.28125 C 6.222656 1.695312 5.898438 2.128906 5.765625 2.578125 C 5.628906 3.023438 5.71875 3.445312 6.03125 3.84375 C 6.351562 4.238281 6.695312 4.4375 7.0625 4.4375 C 7.4375 4.445312 7.867188 4.257812 8.359375 3.875 L 13.109375 0.03125 C 13.429688 -0.226562 13.632812 -0.4375 13.71875 -0.59375 C 13.800781 -0.75 13.78125 -0.898438 13.65625 -1.046875 C 13.582031 -1.140625 13.507812 -1.210938 13.4375 -1.265625 C 13.363281 -1.328125 13.320312 -1.367188 13.3125 -1.390625 L 13.359375 -1.5 L 14.890625 -2.453125 C 15.015625 -2.304688 15.21875 -2.03125 15.5 -1.625 C 15.789062 -1.226562 16.082031 -0.851562 16.375 -0.5 C 16.769531 0 17.144531 0.457031 17.5 0.875 C 17.851562 1.300781 18.097656 1.585938 18.234375 1.734375 L 16.703125 2.75 C 16.328125 2.5 16.066406 2.363281 15.921875 2.34375 C 15.773438 2.320312 15.601562 2.390625 15.40625 2.546875 L 10.9375 6.109375 C 9.644531 7.140625 8.382812 7.554688 7.15625 7.359375 C 5.9375 7.171875 4.769531 6.382812 3.65625 5 Z M 3.65625 5 "/></g></g></g><g fill="#ffffff" fill-opacity="1"><g transform="translate(288.854356, 256.1412)"><g><path d="M -2.953125 3.375 C -2.515625 2.820312 -2.066406 2.351562 -1.609375 1.96875 C -1.148438 1.582031 -0.738281 1.285156 -0.375 1.078125 C -0.0078125 0.867188 0.171875 0.769531 0.171875 0.78125 L 0.609375 0.8125 C 0.753906 0.988281 1.078125 1.335938 1.578125 1.859375 C 2.085938 2.390625 2.550781 2.84375 2.96875 3.21875 L 1.546875 5.296875 C 0.984375 4.859375 0.476562 4.65625 0.03125 4.6875 C -0.40625 4.71875 -0.804688 4.960938 -1.171875 5.421875 C -1.429688 5.753906 -1.570312 6.054688 -1.59375 6.328125 C -1.625 6.609375 -1.539062 6.828125 -1.34375 6.984375 C -1.082031 7.179688 -0.757812 7.210938 -0.375 7.078125 C 0 6.953125 0.519531 6.707031 1.1875 6.34375 L 1.96875 5.9375 C 2.882812 5.445312 3.738281 5.160156 4.53125 5.078125 C 5.320312 4.992188 6.085938 5.242188 6.828125 5.828125 C 7.503906 6.359375 7.9375 7.023438 8.125 7.828125 C 8.320312 8.640625 8.265625 9.519531 7.953125 10.46875 C 7.648438 11.425781 7.117188 12.390625 6.359375 13.359375 C 5.953125 13.878906 5.539062 14.335938 5.125 14.734375 C 4.707031 15.140625 4.351562 15.445312 4.0625 15.65625 C 3.78125 15.875 3.609375 16 3.546875 16.03125 L 3.046875 15.953125 C 2.929688 15.804688 2.632812 15.46875 2.15625 14.9375 C 1.6875 14.40625 1.179688 13.878906 0.640625 13.359375 L 1.9375 11.421875 L 2.234375 11.34375 L 2.484375 11.53125 C 3.222656 12.125 3.894531 12.035156 4.5 11.265625 C 4.726562 10.972656 4.847656 10.675781 4.859375 10.375 C 4.867188 10.082031 4.773438 9.859375 4.578125 9.703125 C 4.304688 9.484375 3.984375 9.441406 3.609375 9.578125 C 3.242188 9.710938 2.707031 9.96875 2 10.34375 L 1.59375 10.59375 C 0.945312 10.945312 0.359375 11.222656 -0.171875 11.421875 C -0.710938 11.617188 -1.273438 11.691406 -1.859375 11.640625 C -2.441406 11.585938 -3.003906 11.347656 -3.546875 10.921875 C -4.234375 10.378906 -4.664062 9.710938 -4.84375 8.921875 C -5.019531 8.128906 -4.945312 7.257812 -4.625 6.3125 C -4.3125 5.363281 -3.753906 4.382812 -2.953125 3.375 Z M -2.953125 3.375 "/></g></g></g><g fill="#ffffff" fill-opacity="1"><g transform="translate(276.137589, 271.059964)"><g><path d="M 0.765625 1.5 C 0.460938 1.957031 0.320312 2.316406 0.34375 2.578125 C 0.375 2.847656 0.578125 3.179688 0.953125 3.578125 L 5.734375 8.65625 C 6.015625 8.957031 6.234375 9.125 6.390625 9.15625 C 6.554688 9.195312 6.738281 9.125 6.9375 8.9375 L 7.3125 8.546875 L 7.625 8.640625 L 8.546875 9.84375 L 6.203125 12.0625 C 5.960938 12.28125 5.140625 13.097656 3.734375 14.515625 L 2.578125 13.09375 C 2.867188 12.738281 3.019531 12.46875 3.03125 12.28125 C 3.050781 12.09375 2.941406 11.84375 2.703125 11.53125 C 1.210938 9.757812 -0.359375 7.988281 -2.015625 6.21875 C -2.398438 5.8125 -2.6875 5.570312 -2.875 5.5 C -3.070312 5.425781 -3.265625 5.476562 -3.453125 5.65625 C -3.628906 5.832031 -3.769531 5.988281 -3.875 6.125 L -4.125 6.09375 L -5.15625 4.75 C -4.050781 3.769531 -3.21875 3.019531 -2.65625 2.5 C -2.125 2 -1.332031 1.210938 -0.28125 0.140625 Z M 0.765625 1.5 "/></g></g></g><g fill="#ffffff" fill-opacity="1"><g transform="translate(264.271255, 281.656952)"><g><path d="M 4.265625 9.453125 C 4.503906 9.804688 4.695312 10.007812 4.84375 10.0625 C 5 10.125 5.195312 10.078125 5.4375 9.921875 L 5.84375 9.609375 L 6.15625 9.734375 L 6.859375 11.109375 L 4.171875 12.90625 C 3.671875 13.25 3.132812 13.628906 2.5625 14.046875 C 1.988281 14.460938 1.59375 14.757812 1.375 14.9375 L 0.46875 13.34375 C 0.820312 12.96875 1.019531 12.679688 1.0625 12.484375 C 1.101562 12.285156 1.03125 12.035156 0.84375 11.734375 L -2.984375 5.8125 C -3.296875 5.34375 -3.535156 5.054688 -3.703125 4.953125 C -3.878906 4.859375 -4.082031 4.882812 -4.3125 5.03125 C -4.445312 5.125 -4.554688 5.207031 -4.640625 5.28125 C -4.734375 5.363281 -4.789062 5.414062 -4.8125 5.4375 L -5.046875 5.359375 L -5.859375 3.875 C -5.617188 3.726562 -5.207031 3.46875 -4.625 3.09375 C -4.039062 2.726562 -3.503906 2.378906 -3.015625 2.046875 C -2.585938 1.753906 -2.070312 1.390625 -1.46875 0.953125 C -0.875 0.515625 -0.484375 0.226562 -0.296875 0.09375 L 0.515625 1.59375 C 0.128906 1.976562 -0.0664062 2.304688 -0.078125 2.578125 C -0.0976562 2.847656 0.046875 3.21875 0.359375 3.6875 Z M -1.4375 12.65625 C -1.476562 12.832031 -1.476562 13.007812 -1.4375 13.1875 C -1.40625 13.375 -1.347656 13.523438 -1.265625 13.640625 C -1.140625 13.835938 -1 13.941406 -0.84375 13.953125 C -0.695312 13.960938 -0.488281 13.882812 -0.21875 13.71875 L -0.015625 13.8125 L 0.765625 15.296875 C 0.597656 15.410156 0.269531 15.617188 -0.21875 15.921875 C -0.707031 16.234375 -1.1875 16.546875 -1.65625 16.859375 C -2.082031 17.140625 -2.535156 17.457031 -3.015625 17.8125 C -3.492188 18.175781 -3.820312 18.425781 -4 18.5625 L -4.3125 18.40625 L -5.015625 17.0625 C -4.753906 16.539062 -4.5625 15.957031 -4.4375 15.3125 C -4.320312 14.664062 -4.25 13.878906 -4.21875 12.953125 L -4.1875 11.484375 L -7.796875 9.515625 C -8.390625 9.203125 -8.890625 9.007812 -9.296875 8.9375 C -9.703125 8.875 -10.085938 8.929688 -10.453125 9.109375 L -10.796875 9 L -11.4375 7.625 C -11.238281 7.457031 -10.832031 7.128906 -10.21875 6.640625 C -9.601562 6.148438 -9.207031 5.84375 -9.03125 5.71875 C -8.59375 5.425781 -8.175781 5.285156 -7.78125 5.296875 C -7.382812 5.304688 -6.878906 5.484375 -6.265625 5.828125 L -1.328125 8.609375 L -1.0625 9.15625 Z M -1.4375 12.65625 "/></g></g></g><g fill="#ffffff" fill-opacity="1"><g transform="translate(245.415938, 293.474234)"><g><path d="M -6.109375 2.734375 L -5.5625 4.328125 C -5.957031 4.554688 -6.21875 4.71875 -6.34375 4.8125 C -6.476562 4.90625 -6.550781 4.992188 -6.5625 5.078125 C -6.570312 5.171875 -6.539062 5.300781 -6.46875 5.46875 L -6.296875 5.78125 L -5.875 6.453125 L -4.421875 5.890625 C -4.242188 5.804688 -3.769531 5.554688 -3 5.140625 L -3.171875 4.25 C -3.210938 4.039062 -3.25 3.898438 -3.28125 3.828125 C -3.351562 3.671875 -3.429688 3.582031 -3.515625 3.5625 C -3.597656 3.539062 -3.765625 3.585938 -4.015625 3.703125 L -4.484375 3.90625 L -4.71875 3.796875 L -5.234375 2.1875 C -5.046875 2.113281 -4.671875 1.960938 -4.109375 1.734375 C -3.554688 1.515625 -2.972656 1.273438 -2.359375 1.015625 L 0.078125 -0.078125 L 0.640625 1.59375 C 0.242188 1.894531 0.0820312 2.363281 0.15625 3 L 1.25 13.5625 L -3.484375 15.96875 L -3.875 15.875 C -4.382812 15.1875 -5.40625 13.847656 -6.9375 11.859375 C -8.476562 9.867188 -9.539062 8.503906 -10.125 7.765625 C -10.414062 7.390625 -10.6875 7.144531 -10.9375 7.03125 C -11.1875 6.914062 -11.460938 6.910156 -11.765625 7.015625 L -11.96875 6.875 L -12.453125 5.34375 C -12.285156 5.269531 -11.941406 5.128906 -11.421875 4.921875 C -10.910156 4.722656 -10.378906 4.503906 -9.828125 4.265625 C -9.097656 3.941406 -8.378906 3.609375 -7.671875 3.265625 C -6.972656 2.929688 -6.53125 2.722656 -6.34375 2.640625 Z M -3.515625 8.140625 C -3.703125 8.222656 -4.015625 8.378906 -4.453125 8.609375 L -2.421875 11.546875 L -2.015625 11.375 L -2.5625 7.734375 Z M -3.515625 8.140625 "/></g></g></g><g fill="#ffffff" fill-opacity="1"><g transform="translate(224.974193, 301.481339)"><g><path d="M -1.53125 2.078125 C -2.0625 2.265625 -2.453125 2.4375 -2.703125 2.59375 C -2.953125 2.75 -3.097656 2.953125 -3.140625 3.203125 C -3.191406 3.453125 -3.171875 3.789062 -3.078125 4.21875 L -1.40625 11.234375 C -1.039062 11.140625 -0.785156 11.003906 -0.640625 10.828125 C -0.492188 10.648438 -0.421875 10.367188 -0.421875 9.984375 C -0.421875 9.597656 -0.488281 9.007812 -0.625 8.21875 L 1.78125 7.484375 C 2.0625 9.035156 2.414062 10.753906 2.84375 12.640625 L 2.65625 12.984375 L 0.28125 13.328125 L -5.875 14.78125 L -8.203125 15.578125 L -8.515625 15.34375 C -9.066406 13.144531 -9.492188 11.5 -9.796875 10.40625 L -7.421875 9.671875 C -7.140625 10.546875 -6.910156 11.160156 -6.734375 11.515625 C -6.566406 11.878906 -6.390625 12.101562 -6.203125 12.1875 C -6.023438 12.269531 -5.753906 12.265625 -5.390625 12.171875 C -5.878906 9.773438 -6.410156 7.375 -6.984375 4.96875 C -7.109375 4.476562 -7.269531 4.148438 -7.46875 3.984375 C -7.664062 3.816406 -7.953125 3.773438 -8.328125 3.859375 C -8.566406 3.921875 -8.898438 4.023438 -9.328125 4.171875 L -9.4375 4.0625 L -9.71875 2.171875 C -7.96875 1.847656 -6.628906 1.578125 -5.703125 1.359375 C -4.835938 1.148438 -3.539062 0.773438 -1.8125 0.234375 Z M -1.53125 2.078125 "/></g></g></g><g fill="#ffffff" fill-opacity="1"><g transform="translate(204.813024, 305.373961)"><g/></g></g><g fill="#ffffff" fill-opacity="1"><g transform="translate(193.308381, 306.22371)"><g><path d="M -4.46875 -0.375 C -3.769531 -0.351562 -3.125 -0.269531 -2.53125 -0.125 C -1.945312 0.0195312 -1.460938 0.175781 -1.078125 0.34375 C -0.703125 0.507812 -0.515625 0.597656 -0.515625 0.609375 L -0.296875 0.96875 C -0.347656 1.1875 -0.4375 1.65625 -0.5625 2.375 C -0.6875 3.101562 -0.773438 3.742188 -0.828125 4.296875 L -3.359375 4.390625 C -3.335938 3.679688 -3.46875 3.15625 -3.75 2.8125 C -4.039062 2.476562 -4.484375 2.300781 -5.078125 2.28125 C -5.492188 2.269531 -5.820312 2.332031 -6.0625 2.46875 C -6.300781 2.601562 -6.425781 2.800781 -6.4375 3.0625 C -6.445312 3.382812 -6.285156 3.660156 -5.953125 3.890625 C -5.617188 4.117188 -5.101562 4.394531 -4.40625 4.71875 L -3.59375 5.109375 C -2.675781 5.554688 -1.945312 6.070312 -1.40625 6.65625 C -0.863281 7.238281 -0.609375 8.003906 -0.640625 8.953125 C -0.671875 9.804688 -0.953125 10.550781 -1.484375 11.1875 C -2.015625 11.820312 -2.753906 12.300781 -3.703125 12.625 C -4.660156 12.957031 -5.753906 13.101562 -6.984375 13.0625 C -7.640625 13.039062 -8.25 12.976562 -8.8125 12.875 C -9.382812 12.78125 -9.84375 12.679688 -10.1875 12.578125 C -10.53125 12.472656 -10.734375 12.40625 -10.796875 12.375 L -11.046875 11.9375 C -10.992188 11.75 -10.894531 11.304688 -10.75 10.609375 C -10.601562 9.921875 -10.484375 9.203125 -10.390625 8.453125 L -8.046875 8.34375 L -7.8125 8.53125 L -7.8125 8.84375 C -7.84375 9.789062 -7.367188 10.28125 -6.390625 10.3125 C -6.015625 10.320312 -5.707031 10.242188 -5.46875 10.078125 C -5.226562 9.910156 -5.101562 9.695312 -5.09375 9.4375 C -5.082031 9.09375 -5.238281 8.8125 -5.5625 8.59375 C -5.882812 8.375 -6.414062 8.09375 -7.15625 7.75 L -7.578125 7.5625 C -8.253906 7.257812 -8.828125 6.945312 -9.296875 6.625 C -9.773438 6.3125 -10.164062 5.90625 -10.46875 5.40625 C -10.78125 4.914062 -10.925781 4.320312 -10.90625 3.625 C -10.875 2.75 -10.59375 2.003906 -10.0625 1.390625 C -9.539062 0.773438 -8.800781 0.316406 -7.84375 0.015625 C -6.882812 -0.285156 -5.757812 -0.414062 -4.46875 -0.375 Z M -4.46875 -0.375 "/></g></g></g><g fill="#ffffff" fill-opacity="1"><g transform="translate(173.851005, 304.954749)"><g><path d="M -12.46875 1.90625 C -12 0.800781 -11.539062 -0.515625 -11.09375 -2.046875 L -10.734375 -2.3125 C -8.535156 -1.769531 -6.429688 -1.296875 -4.421875 -0.890625 C -3.128906 -0.628906 -1.726562 -0.414062 -0.21875 -0.25 L -0.75 1.53125 C -1.257812 1.507812 -1.628906 1.601562 -1.859375 1.8125 C -2.097656 2.019531 -2.273438 2.421875 -2.390625 3.015625 L -3.75 9.625 C -3.832031 10.050781 -3.851562 10.34375 -3.8125 10.5 C -3.78125 10.65625 -3.648438 10.753906 -3.421875 10.796875 C -3.242188 10.835938 -3.070312 10.859375 -2.90625 10.859375 L -2.71875 11.171875 L -3.21875 12.703125 C -3.488281 12.648438 -3.6875 12.601562 -3.8125 12.5625 C -5.414062 12.21875 -6.75 11.9375 -7.8125 11.71875 C -9.050781 11.476562 -10.242188 11.265625 -11.390625 11.078125 C -12.535156 10.890625 -13.390625 10.769531 -13.953125 10.71875 L -14.15625 10.359375 C -13.925781 9.847656 -13.695312 9.222656 -13.46875 8.484375 C -13.238281 7.753906 -13.050781 7.097656 -12.90625 6.515625 L -10.140625 6.90625 L -10.328125 7.609375 C -10.390625 7.910156 -10.382812 8.148438 -10.3125 8.328125 C -10.25 8.503906 -10.085938 8.644531 -9.828125 8.75 C -9.578125 8.863281 -9.171875 8.976562 -8.609375 9.09375 C -8.328125 9.144531 -8.140625 9.144531 -8.046875 9.09375 C -7.953125 9.050781 -7.878906 8.921875 -7.828125 8.703125 L -7.28125 6.484375 L -8.890625 6.140625 C -9.410156 6.035156 -10.140625 5.925781 -11.078125 5.8125 L -11.25 5.484375 L -10.53125 3.28125 C -9.269531 3.570312 -8.484375 3.75 -8.171875 3.8125 C -7.890625 3.875 -7.382812 3.9375 -6.65625 4 L -6.3125 2.34375 C -6.238281 1.976562 -6.207031 1.707031 -6.21875 1.53125 C -6.226562 1.363281 -6.289062 1.238281 -6.40625 1.15625 C -6.519531 1.070312 -6.722656 1 -7.015625 0.9375 C -7.597656 0.820312 -8.046875 0.789062 -8.359375 0.84375 C -8.671875 0.894531 -8.925781 1.046875 -9.125 1.296875 C -9.320312 1.546875 -9.519531 1.972656 -9.71875 2.578125 L -12.265625 2.234375 Z M -12.46875 1.90625 "/></g></g></g><g fill="#ffffff" fill-opacity="1"><g transform="translate(153.891994, 300.201555)"><g><path d="M -1.046875 1.390625 C -1.535156 1.285156 -1.910156 1.3125 -2.171875 1.46875 C -2.429688 1.632812 -2.664062 1.984375 -2.875 2.515625 L -5.328125 8.84375 C -5.472656 9.226562 -5.539062 9.503906 -5.53125 9.671875 C -5.519531 9.847656 -5.425781 9.972656 -5.25 10.046875 C -5.09375 10.109375 -4.945312 10.15625 -4.8125 10.1875 C -4.6875 10.21875 -4.609375 10.238281 -4.578125 10.25 L -4.484375 10.546875 L -5.234375 11.9375 L -7.90625 10.90625 C -8.257812 10.769531 -8.847656 10.554688 -9.671875 10.265625 C -10.492188 9.984375 -11.046875 9.800781 -11.328125 9.71875 C -13.304688 8.945312 -14.492188 8.023438 -14.890625 6.953125 C -15.296875 5.890625 -15.300781 4.847656 -14.90625 3.828125 C -14.601562 3.046875 -14.101562 2.394531 -13.40625 1.875 C -12.71875 1.351562 -11.929688 1.03125 -11.046875 0.90625 C -10.160156 0.78125 -9.304688 0.878906 -8.484375 1.203125 L -6.859375 1.828125 L -6.515625 0.921875 C -6.304688 0.398438 -6.226562 0.0195312 -6.28125 -0.21875 C -6.332031 -0.457031 -6.550781 -0.65625 -6.9375 -0.8125 C -7.070312 -0.863281 -7.195312 -0.898438 -7.3125 -0.921875 C -7.4375 -0.953125 -7.519531 -0.976562 -7.5625 -1 L -7.59375 -1.171875 L -6.78125 -2.734375 C -6.539062 -2.617188 -6.109375 -2.425781 -5.484375 -2.15625 C -4.867188 -1.894531 -4.289062 -1.660156 -3.75 -1.453125 C -3.382812 -1.316406 -2.773438 -1.109375 -1.921875 -0.828125 C -1.066406 -0.546875 -0.492188 -0.363281 -0.203125 -0.28125 Z M -9.03125 3.4375 C -9.457031 3.425781 -9.828125 3.554688 -10.140625 3.828125 C -10.460938 4.097656 -10.738281 4.535156 -10.96875 5.140625 C -11.207031 5.753906 -11.222656 6.257812 -11.015625 6.65625 C -10.804688 7.0625 -10.375 7.390625 -9.71875 7.640625 C -9.59375 7.691406 -9.5 7.695312 -9.4375 7.65625 C -9.382812 7.613281 -9.3125 7.507812 -9.21875 7.34375 C -8.726562 6.238281 -8.257812 5.164062 -7.8125 4.125 Z M -9.03125 3.4375 "/></g></g></g><g fill="#ffffff" fill-opacity="1"><g transform="translate(134.998414, 292.126763)"><g><path d="M -5.75 -3.453125 L -6.734375 -2.0625 C -7.148438 -2.257812 -7.429688 -2.378906 -7.578125 -2.421875 C -7.734375 -2.472656 -7.847656 -2.476562 -7.921875 -2.4375 C -8.003906 -2.40625 -8.09375 -2.3125 -8.1875 -2.15625 L -8.34375 -1.828125 L -8.640625 -1.09375 L -7.359375 -0.25 C -7.191406 -0.144531 -6.71875 0.109375 -5.9375 0.515625 L -5.296875 -0.140625 C -5.140625 -0.304688 -5.046875 -0.421875 -5.015625 -0.484375 C -4.921875 -0.628906 -4.890625 -0.742188 -4.921875 -0.828125 C -4.960938 -0.910156 -5.101562 -1.019531 -5.34375 -1.15625 L -5.78125 -1.421875 L -5.8125 -1.6875 L -4.796875 -3.015625 C -4.640625 -2.898438 -4.304688 -2.679688 -3.796875 -2.359375 C -3.285156 -2.035156 -2.75 -1.703125 -2.1875 -1.359375 L 0.109375 0 L -0.9375 1.4375 C -1.40625 1.28125 -1.882812 1.421875 -2.375 1.859375 L -10.390625 8.828125 L -15.0625 6.328125 L -15.203125 5.953125 C -14.941406 5.148438 -14.441406 3.546875 -13.703125 1.140625 C -12.960938 -1.265625 -12.457031 -2.921875 -12.1875 -3.828125 C -12.039062 -4.273438 -11.988281 -4.632812 -12.03125 -4.90625 C -12.082031 -5.1875 -12.238281 -5.414062 -12.5 -5.59375 L -12.5 -5.84375 L -11.53125 -7.109375 C -11.363281 -7.015625 -11.050781 -6.816406 -10.59375 -6.515625 C -10.132812 -6.222656 -9.644531 -5.921875 -9.125 -5.609375 C -8.457031 -5.191406 -7.785156 -4.789062 -7.109375 -4.40625 C -6.429688 -4.019531 -5.992188 -3.78125 -5.796875 -3.6875 Z M -8.671875 1.796875 C -8.847656 1.691406 -9.15625 1.523438 -9.59375 1.296875 L -10.84375 4.65625 L -10.46875 4.890625 L -7.796875 2.34375 Z M -8.671875 1.796875 "/></g></g></g><g fill="#ffffff" fill-opacity="1"><g transform="translate(116.701121, 279.994509)"><g><path d="M -2.578125 -0.0625 C -3.035156 -0.382812 -3.398438 -0.601562 -3.671875 -0.71875 C -3.941406 -0.832031 -4.191406 -0.835938 -4.421875 -0.734375 C -4.660156 -0.628906 -4.925781 -0.414062 -5.21875 -0.09375 L -10 5.296875 C -9.71875 5.535156 -9.460938 5.664062 -9.234375 5.6875 C -9.003906 5.71875 -8.734375 5.617188 -8.421875 5.390625 C -8.109375 5.171875 -7.664062 4.78125 -7.09375 4.21875 L -5.09375 5.75 C -6.207031 6.875 -7.414062 8.15625 -8.71875 9.59375 L -9.09375 9.640625 L -10.75 7.890625 L -15.484375 3.6875 L -17.453125 2.234375 L -17.46875 1.84375 C -15.976562 0.125 -14.875 -1.171875 -14.15625 -2.046875 L -12.171875 -0.515625 C -12.734375 0.222656 -13.109375 0.757812 -13.296875 1.09375 C -13.492188 1.4375 -13.570312 1.707031 -13.53125 1.90625 C -13.5 2.101562 -13.34375 2.328125 -13.0625 2.578125 C -11.382812 0.796875 -9.726562 -1.019531 -8.09375 -2.875 C -7.75 -3.257812 -7.566406 -3.578125 -7.546875 -3.828125 C -7.523438 -4.085938 -7.660156 -4.34375 -7.953125 -4.59375 C -8.128906 -4.75 -8.394531 -4.960938 -8.75 -5.234375 L -8.75 -5.390625 L -7.375 -6.703125 C -6.09375 -5.460938 -5.097656 -4.523438 -4.390625 -3.890625 C -3.722656 -3.296875 -2.671875 -2.445312 -1.234375 -1.34375 Z M -2.578125 -0.0625 "/></g></g></g><g fill="#ffffff" fill-opacity="1"><g transform="translate(101.969638, 266.010434)"><g><path d="M -3.640625 -4.9375 C -2.566406 -3.59375 -2.046875 -2.398438 -2.078125 -1.359375 C -2.117188 -0.316406 -2.71875 0.660156 -3.875 1.578125 L -8.6875 5.421875 C -9.03125 5.691406 -9.238281 5.898438 -9.3125 6.046875 C -9.382812 6.191406 -9.347656 6.351562 -9.203125 6.53125 C -9.117188 6.625 -9.035156 6.707031 -8.953125 6.78125 C -8.878906 6.863281 -8.832031 6.921875 -8.8125 6.953125 L -8.828125 7.046875 L -10.359375 8 C -10.503906 7.820312 -10.773438 7.46875 -11.171875 6.9375 C -11.566406 6.40625 -12.019531 5.820312 -12.53125 5.1875 C -12.84375 4.789062 -13.175781 4.382812 -13.53125 3.96875 C -13.894531 3.550781 -14.144531 3.265625 -14.28125 3.109375 L -12.6875 2.09375 C -12.457031 2.363281 -12.234375 2.503906 -12.015625 2.515625 C -11.804688 2.523438 -11.570312 2.4375 -11.3125 2.25 L -6.6875 -1.28125 C -6.164062 -1.695312 -5.84375 -2.128906 -5.71875 -2.578125 C -5.601562 -3.023438 -5.703125 -3.441406 -6.015625 -3.828125 C -6.328125 -4.222656 -6.660156 -4.421875 -7.015625 -4.421875 C -7.378906 -4.421875 -7.804688 -4.226562 -8.296875 -3.84375 L -13.03125 -0.03125 C -13.351562 0.226562 -13.554688 0.429688 -13.640625 0.578125 C -13.722656 0.734375 -13.703125 0.890625 -13.578125 1.046875 C -13.503906 1.128906 -13.429688 1.195312 -13.359375 1.25 C -13.296875 1.3125 -13.257812 1.351562 -13.25 1.375 L -13.265625 1.484375 L -14.796875 2.421875 C -14.910156 2.273438 -15.109375 2.003906 -15.390625 1.609375 C -15.679688 1.222656 -15.972656 0.851562 -16.265625 0.5 C -16.660156 -0.0078125 -17.035156 -0.472656 -17.390625 -0.890625 C -17.753906 -1.304688 -17.992188 -1.585938 -18.109375 -1.734375 L -16.609375 -2.734375 C -16.242188 -2.492188 -15.976562 -2.359375 -15.8125 -2.328125 C -15.65625 -2.304688 -15.484375 -2.375 -15.296875 -2.53125 L -10.859375 -6.0625 C -9.578125 -7.082031 -8.328125 -7.492188 -7.109375 -7.296875 C -5.898438 -7.109375 -4.742188 -6.320312 -3.640625 -4.9375 Z M -3.640625 -4.9375 "/></g></g></g><g clip-path="url(#03361bfd92)"><path fill="#ffffff" d="M 255.636719 171.066406 C 255.164062 171.066406 254.78125 171.449219 254.78125 171.921875 C 254.78125 172.148438 254.871094 172.367188 255.03125 172.527344 L 260.140625 177.636719 L 257.976562 179.902344 L 252.828125 174.75 C 252.664062 174.582031 252.445312 174.488281 252.214844 174.488281 C 251.742188 174.488281 251.355469 174.871094 251.355469 175.34375 C 251.355469 175.570312 251.449219 175.789062 251.609375 175.949219 L 256.796875 181.140625 L 254.644531 183.40625 L 249.394531 178.160156 C 249.234375 178 249.019531 177.910156 248.789062 177.910156 C 248.320312 177.910156 247.933594 178.292969 247.933594 178.765625 C 247.933594 178.992188 248.023438 179.210938 248.1875 179.371094 C 248.1875 179.375 248.191406 179.378906 248.191406 179.382812 L 253.460938 184.644531 L 251.304688 186.910156 L 245.984375 181.589844 C 245.980469 181.589844 245.976562 181.585938 245.972656 181.582031 C 245.8125 181.421875 245.59375 181.332031 245.367188 181.332031 C 244.898438 181.332031 244.511719 181.71875 244.511719 182.1875 C 244.511719 182.414062 244.601562 182.632812 244.761719 182.792969 L 250.121094 188.152344 L 249.042969 189.285156 L 247.910156 190.363281 L 242.5625 185.011719 C 242.398438 184.847656 242.175781 184.753906 241.945312 184.753906 C 241.472656 184.753906 241.089844 185.140625 241.089844 185.609375 C 241.089844 185.839844 241.179688 186.054688 241.339844 186.214844 L 246.667969 191.542969 L 244.402344 193.703125 L 239.128906 188.429688 C 238.96875 188.269531 238.75 188.175781 238.523438 188.175781 C 238.050781 188.175781 237.667969 188.5625 237.667969 189.03125 C 237.667969 189.265625 237.761719 189.484375 237.925781 189.648438 L 243.164062 194.886719 L 240.898438 197.042969 L 235.714844 191.855469 C 235.550781 191.695312 235.332031 191.601562 235.101562 191.601562 C 234.628906 191.601562 234.246094 191.984375 234.246094 192.457031 C 234.246094 192.683594 234.335938 192.898438 234.496094 193.058594 L 239.660156 198.222656 L 237.394531 200.382812 L 232.285156 195.273438 C 232.121094 195.113281 231.90625 195.023438 231.679688 195.023438 C 231.207031 195.023438 230.824219 195.40625 230.824219 195.878906 C 230.824219 196.109375 230.917969 196.328125 231.082031 196.492188 L 236.152344 201.5625 L 234.195312 203.429688 C 233.703125 203.890625 233.390625 204.558594 233.390625 205.289062 C 233.390625 205.894531 233.640625 206.425781 233.992188 206.867188 C 234.035156 206.96875 234.097656 207.0625 234.179688 207.136719 L 236.636719 209.582031 L 236.589844 209.539062 C 237.054688 210.070312 237.75 210.421875 238.523438 210.421875 C 238.835938 210.421875 239.089844 210.300781 239.355469 210.199219 C 239.492188 210.203125 239.625 210.171875 239.746094 210.113281 C 239.746094 210.113281 248.890625 205.554688 257.097656 197.339844 C 265.3125 189.132812 269.871094 179.988281 269.871094 179.988281 C 269.929688 179.867188 269.960938 179.734375 269.957031 179.597656 C 270.058594 179.332031 270.179688 179.078125 270.179688 178.765625 C 270.179688 177.992188 269.828125 177.296875 269.296875 176.835938 L 269.339844 176.878906 L 266.894531 174.421875 C 266.820312 174.339844 266.726562 174.277344 266.625 174.234375 C 266.1875 173.882812 265.652344 173.632812 265.046875 173.632812 C 264.316406 173.632812 263.648438 173.945312 263.183594 174.4375 L 261.320312 176.394531 L 256.25 171.324219 C 256.246094 171.324219 256.242188 171.320312 256.242188 171.316406 C 256.078125 171.15625 255.863281 171.066406 255.636719 171.066406 Z M 265.046875 175.34375 C 265.292969 175.34375 265.503906 175.445312 265.664062 175.609375 C 265.824219 175.777344 266.046875 175.875 266.277344 175.878906 L 265.933594 175.878906 L 268.125 178.085938 C 268.136719 178.097656 268.15625 178.109375 268.171875 178.125 C 268.359375 178.292969 268.46875 178.507812 268.46875 178.765625 C 268.46875 178.910156 268.433594 179.039062 268.355469 179.175781 C 268.339844 179.207031 268.324219 179.238281 268.3125 179.269531 C 268.277344 179.335938 263.84375 188.179688 255.886719 196.128906 C 247.933594 204.085938 239.09375 208.519531 239.027344 208.554688 C 238.996094 208.566406 238.964844 208.582031 238.933594 208.597656 C 238.796875 208.675781 238.667969 208.710938 238.523438 208.710938 C 238.265625 208.710938 238.046875 208.601562 237.882812 208.414062 C 237.867188 208.398438 237.855469 208.382812 237.839844 208.367188 L 235.636719 206.175781 L 235.636719 206.527344 C 235.636719 206.292969 235.539062 206.066406 235.367188 205.90625 C 235.203125 205.746094 235.101562 205.535156 235.101562 205.289062 C 235.101562 205.042969 235.203125 204.832031 235.371094 204.671875 C 235.371094 204.671875 235.375 204.667969 235.375 204.667969 L 250.234375 190.507812 C 250.246094 190.5 250.257812 190.492188 250.265625 190.476562 L 264.425781 175.617188 C 264.425781 175.617188 264.429688 175.613281 264.429688 175.613281 C 264.589844 175.445312 264.800781 175.34375 265.046875 175.34375 Z M 265.046875 175.34375 " fill-opacity="1" fill-rule="nonzero"/></g><path fill="#ffffff" d="M 184.042969 149.628906 C 184.042969 146.140625 184.042969 142.65625 184.042969 139.167969 C 184.027344 138.167969 184.222656 137.207031 184.625 136.289062 C 185.027344 135.371094 185.605469 134.578125 186.359375 133.90625 C 186.617188 133.6875 186.742188 133.414062 186.726562 133.078125 C 186.726562 131.964844 186.726562 130.84375 186.726562 129.722656 C 186.664062 129.324219 186.800781 129.011719 187.144531 128.789062 C 187.390625 128.683594 187.644531 128.632812 187.914062 128.628906 C 188.609375 128.601562 188.609375 128.628906 188.609375 127.941406 C 188.609375 126.859375 188.609375 125.777344 188.609375 124.695312 C 188.617188 124.445312 188.648438 124.195312 188.703125 123.949219 C 188.734375 123.769531 188.820312 123.621094 188.960938 123.503906 C 189.101562 123.386719 189.261719 123.328125 189.449219 123.328125 C 190.59375 123.328125 191.742188 123.328125 192.886719 123.328125 C 193.472656 123.328125 193.722656 123.804688 193.722656 124.386719 C 193.75 125.625 193.722656 126.863281 193.722656 128.128906 C 193.722656 128.605469 193.722656 128.613281 194.203125 128.617188 C 194.285156 128.617188 194.375 128.617188 194.457031 128.617188 C 195.339844 128.574219 195.640625 129.082031 195.640625 129.816406 C 195.640625 130.980469 195.640625 132.144531 195.640625 133.308594 C 195.644531 133.488281 195.710938 133.644531 195.835938 133.773438 C 197 134.789062 197.757812 136.042969 198.109375 137.535156 C 198.21875 137.953125 198.285156 138.375 198.296875 138.804688 C 198.296875 146.101562 198.296875 153.398438 198.296875 160.703125 C 198.296875 161.941406 197.378906 162.839844 196.007812 162.863281 C 194.449219 162.890625 192.886719 162.863281 191.324219 162.863281 C 189.648438 162.863281 188.003906 162.863281 186.347656 162.863281 C 185.738281 162.871094 185.203125 162.671875 184.75 162.269531 C 184.242188 161.808594 184.003906 161.238281 184.035156 160.5625 C 184.042969 156.914062 184.042969 153.269531 184.042969 149.628906 Z M 185.828125 149.679688 C 185.828125 153.261719 185.828125 156.832031 185.828125 160.390625 C 185.828125 160.949219 185.941406 161.0625 186.511719 161.070312 L 195.847656 161.070312 C 196.394531 161.070312 196.527344 160.9375 196.527344 160.382812 L 196.527344 154.6875 C 196.527344 154.214844 196.527344 154.207031 196.035156 154.203125 L 191.003906 154.203125 C 190.503906 154.203125 190.003906 154.203125 189.507812 154.203125 C 189.007812 154.203125 188.851562 154.003906 188.796875 153.554688 C 188.78125 153.417969 188.773438 153.28125 188.773438 153.140625 C 188.773438 149.679688 188.773438 146.21875 188.773438 142.753906 C 188.773438 142.609375 188.773438 142.464844 188.773438 142.339844 C 188.773438 142.136719 188.851562 141.964844 189.003906 141.828125 C 189.15625 141.6875 189.335938 141.628906 189.542969 141.644531 C 191.730469 141.644531 193.921875 141.644531 196.109375 141.644531 C 196.382812 141.644531 196.527344 141.566406 196.5 141.269531 C 196.5 140.539062 196.519531 139.804688 196.5 139.074219 C 196.484375 138.058594 196.203125 137.121094 195.660156 136.261719 C 195.328125 135.738281 194.914062 135.285156 194.421875 134.910156 C 193.925781 134.53125 193.382812 134.25 192.785156 134.0625 C 192.1875 133.875 191.578125 133.796875 190.953125 133.824219 C 190.328125 133.855469 189.726562 133.988281 189.148438 134.226562 C 186.976562 135.144531 185.871094 136.839844 185.84375 139.152344 C 185.796875 142.660156 185.828125 146.171875 185.828125 149.679688 Z M 196.527344 147.925781 C 196.527344 146.390625 196.527344 144.847656 196.527344 143.3125 C 196.527344 143.027344 196.445312 142.949219 196.152344 142.953125 C 194.285156 142.953125 192.417969 142.953125 190.554688 142.953125 C 190.203125 142.953125 190.09375 143.03125 190.09375 143.367188 C 190.109375 146.394531 190.109375 149.4375 190.09375 152.488281 C 190.09375 152.808594 190.183594 152.902344 190.511719 152.902344 C 192.382812 152.902344 194.25 152.902344 196.113281 152.902344 C 196.429688 152.902344 196.53125 152.820312 196.53125 152.488281 C 196.519531 150.984375 196.527344 149.457031 196.527344 147.925781 Z M 188.53125 132.539062 C 189.378906 132.203125 190.261719 132.035156 191.175781 132.035156 C 192.09375 132.035156 192.972656 132.203125 193.824219 132.539062 C 193.824219 131.835938 193.824219 131.203125 193.824219 130.570312 C 193.824219 130.511719 193.679688 130.410156 193.601562 130.410156 C 191.992188 130.410156 190.382812 130.410156 188.777344 130.410156 C 188.695312 130.410156 188.550781 130.507812 188.550781 130.5625 C 188.523438 131.191406 188.53125 131.839844 188.53125 132.539062 Z M 191.882812 126.828125 L 191.882812 126.328125 C 191.882812 126.148438 191.882812 125.96875 191.882812 125.789062 C 191.882812 125.050781 191.882812 125.050781 191.136719 125.050781 C 190.390625 125.050781 190.410156 125.050781 190.398438 125.734375 C 190.398438 126.589844 190.398438 127.445312 190.398438 128.300781 C 190.398438 128.527344 190.488281 128.605469 190.699219 128.601562 C 191.007812 128.601562 191.3125 128.621094 191.613281 128.601562 C 191.742188 128.558594 191.820312 128.476562 191.855469 128.347656 C 191.910156 127.835938 191.894531 127.332031 191.894531 126.828125 Z M 191.882812 126.828125 " fill-opacity="1" fill-rule="nonzero"/><path fill="#ffffff" d="M 200.6875 123.929688 C 201.140625 123.828125 201.597656 123.714844 202.054688 123.617188 C 203.210938 123.355469 204.367188 123.097656 205.527344 122.847656 C 205.703125 122.832031 205.859375 122.875 205.996094 122.976562 C 206.136719 123.078125 206.226562 123.214844 206.261719 123.382812 C 206.28125 123.570312 206.230469 123.738281 206.117188 123.890625 C 206.003906 124.042969 205.855469 124.136719 205.667969 124.175781 L 201.625 125.058594 C 200.882812 125.230469 200.140625 125.40625 199.390625 125.652344 C 199.714844 125.738281 200.03125 125.832031 200.355469 125.902344 C 202.089844 126.289062 203.835938 126.664062 205.570312 127.054688 C 205.742188 127.066406 205.890625 127.128906 206.019531 127.238281 C 206.148438 127.351562 206.230469 127.492188 206.261719 127.65625 C 206.289062 127.785156 206.273438 127.910156 206.210938 128.027344 C 206.152344 128.144531 206.0625 128.230469 205.9375 128.285156 C 205.742188 128.378906 205.535156 128.40625 205.320312 128.367188 C 203.792969 128.03125 202.277344 127.671875 200.757812 127.316406 C 200.757812 127.316406 200.710938 127.316406 200.65625 127.34375 C 200.703125 127.402344 200.726562 127.472656 200.777344 127.5 L 205.738281 130.296875 C 206.203125 130.5625 206.375 130.902344 206.230469 131.21875 C 206.195312 131.308594 206.144531 131.386719 206.078125 131.453125 C 206.011719 131.519531 205.929688 131.570312 205.839844 131.601562 C 205.75 131.636719 205.65625 131.648438 205.5625 131.640625 C 205.464844 131.628906 205.375 131.601562 205.292969 131.554688 C 204.378906 131.058594 203.472656 130.542969 202.570312 130.03125 L 195.929688 126.261719 C 195.347656 125.925781 195.332031 125.335938 195.90625 125.023438 C 198.980469 123.261719 202.054688 121.507812 205.128906 119.753906 C 205.28125 119.640625 205.449219 119.59375 205.636719 119.617188 C 205.828125 119.636719 205.980469 119.722656 206.097656 119.871094 C 206.164062 119.957031 206.207031 120.050781 206.226562 120.15625 C 206.246094 120.261719 206.242188 120.367188 206.210938 120.46875 C 206.183594 120.574219 206.128906 120.664062 206.058594 120.746094 C 205.984375 120.824219 205.898438 120.882812 205.796875 120.921875 L 203.117188 122.421875 L 200.8125 123.71875 C 200.753906 123.757812 200.699219 123.804688 200.648438 123.851562 Z M 200.6875 123.929688 " fill-opacity="1" fill-rule="nonzero"/><path fill="#ffffff" d="M 192.140625 224.871094 C 195.804688 229.503906 199.320312 233.984375 201.539062 239.3125 C 203.492188 244.011719 201.421875 249.46875 196.929688 251.863281 C 192.246094 254.351562 186.5 252.882812 183.691406 248.457031 C 181.859375 245.574219 181.402344 242.503906 182.757812 239.300781 C 185.003906 233.972656 188.5 229.484375 192.140625 224.871094 Z M 192.207031 228.65625 C 189.933594 230.820312 185.898438 237.375 184.738281 240.460938 C 183.699219 243.226562 184.320312 245.640625 186.015625 247.84375 C 188.328125 250.847656 192.707031 251.65625 195.917969 249.859375 C 198.800781 248.242188 201.214844 244.207031 199.4375 240.167969 C 199.074219 239.34375 198.722656 238.519531 198.300781 237.726562 C 196.582031 234.488281 194.550781 231.464844 192.207031 228.65625 Z M 192.207031 228.65625 " fill-opacity="1" fill-rule="nonzero"/><path fill="#ffffff" d="M 188.699219 242.898438 C 188.933594 244.960938 190.21875 245.972656 192.117188 246.324219 L 192.117188 248.304688 C 189.519531 248.832031 186.835938 246.261719 186.515625 242.898438 Z M 188.699219 242.898438 " fill-opacity="1" fill-rule="nonzero"/><g fill="#ffffff" fill-opacity="1"><g transform="translate(60.654861, 190.26252)"><g><path d="M 0.398438 0 L 8.277344 0 L 8.277344 -1.523438 L 2.671875 -1.523438 C 2.671875 -2.34375 3.09375 -2.765625 4.277344 -3.117188 L 5.617188 -3.492188 C 7.441406 -3.976562 8.167969 -4.699219 8.167969 -6.027344 C 8.179688 -7.78125 6.765625 -8.84375 4.699219 -8.84375 C 2.863281 -8.84375 1.246094 -7.925781 0.617188 -6.488281 L 2.054688 -5.582031 C 2.550781 -6.574219 3.550781 -7.164062 4.507812 -7.164062 C 5.363281 -7.164062 5.957031 -6.730469 5.957031 -6.054688 C 5.957031 -5.425781 5.570312 -5.0625 4.578125 -4.761719 L 3.371094 -4.433594 C 1.230469 -3.867188 0.410156 -2.9375 0.398438 -0.992188 Z M 0.398438 0 "/></g></g></g><g fill="#ffffff" fill-opacity="1"><g transform="translate(78.757354, 190.26252)"><g><path d="M 5.109375 0.242188 C 7.851562 0.242188 9.726562 -1.617188 9.726562 -4.300781 C 9.726562 -6.984375 7.851562 -8.84375 5.109375 -8.84375 C 2.355469 -8.84375 0.496094 -6.984375 0.496094 -4.300781 C 0.496094 -1.617188 2.355469 0.242188 5.109375 0.242188 Z M 5.109375 -1.472656 C 3.671875 -1.472656 2.707031 -2.632812 2.707031 -4.300781 C 2.707031 -5.980469 3.671875 -7.128906 5.109375 -7.128906 C 6.546875 -7.128906 7.503906 -5.980469 7.503906 -4.300781 C 7.503906 -2.632812 6.546875 -1.472656 5.109375 -1.472656 Z M 5.109375 -1.472656 "/></g></g></g><g fill="#ffffff" fill-opacity="1"><g transform="translate(292.279907, 190.569652)"><g><path d="M 0.398438 0 L 8.277344 0 L 8.277344 -1.523438 L 2.671875 -1.523438 C 2.671875 -2.34375 3.09375 -2.765625 4.277344 -3.117188 L 5.617188 -3.492188 C 7.441406 -3.976562 8.167969 -4.699219 8.167969 -6.027344 C 8.179688 -7.78125 6.765625 -8.84375 4.699219 -8.84375 C 2.863281 -8.84375 1.246094 -7.925781 0.617188 -6.488281 L 2.054688 -5.582031 C 2.550781 -6.574219 3.550781 -7.164062 4.507812 -7.164062 C 5.363281 -7.164062 5.957031 -6.730469 5.957031 -6.054688 C 5.957031 -5.425781 5.570312 -5.0625 4.578125 -4.761719 L 3.371094 -4.433594 C 1.230469 -3.867188 0.410156 -2.9375 0.398438 -0.992188 Z M 0.398438 0 "/></g></g></g><g fill="#ffffff" fill-opacity="1"><g transform="translate(310.3824, 190.569652)"><g><path d="M 0.289062 0 L 7.429688 0 L 7.429688 -1.59375 L 5.304688 -1.59375 L 5.304688 -8.601562 L 3.214844 -8.601562 C 2.644531 -7.734375 1.738281 -7.175781 0.472656 -6.875 L 1.015625 -5.136719 C 1.957031 -5.425781 2.65625 -5.800781 3.070312 -6.414062 L 3.082031 -6.414062 L 3.082031 -1.59375 L 0.289062 -1.59375 Z M 0.289062 0 "/></g></g></g></svg>